<svg width="100" height="100" viewBox="0 0 100 100" fill="none" xmlns="http://www.w3.org/2000/svg">
<rect width="100" height="100" rx="30" fill="#2E293F"/>
<path d="M36.429 68.6591C34.7926 68.6591 33.3911 68.0833 32.2244 66.9318C31.0729 65.7803 30.5047 64.3864 30.5199 62.75C30.5047 61.1439 31.0729 59.7727 32.2244 58.6364C33.3911 57.4848 34.7926 56.9091 36.429 56.9091C37.9744 56.9091 39.3381 57.4848 40.5199 58.6364C41.7169 59.7727 42.3229 61.1439 42.3381 62.75C42.3229 63.8409 42.035 64.8333 41.4744 65.7273C40.929 66.6212 40.2093 67.3333 39.3153 67.8636C38.4366 68.3939 37.4744 68.6591 36.429 68.6591ZM36.429 44.7045C34.7926 44.7045 33.3911 44.1364 32.2244 43C31.0729 41.8485 30.5047 40.447 30.5199 38.7955C30.5047 37.1894 31.0729 35.8182 32.2244 34.6818C33.3911 33.5303 34.7926 32.9545 36.429 32.9545C37.9744 32.9545 39.3381 33.5303 40.5199 34.6818C41.7169 35.8182 42.3229 37.1894 42.3381 38.7955C42.3229 39.8864 42.035 40.8788 41.4744 41.7727C40.929 42.6667 40.2093 43.3788 39.3153 43.9091C38.4366 44.4394 37.4744 44.7045 36.429 44.7045ZM67.6108 49.6818C67.6108 55.2879 66.8532 60.4545 65.3381 65.1818C63.8229 69.8939 61.4593 74.2727 58.2472 78.3182H47.4744C48.7017 76.8182 49.8305 74.9924 50.8608 72.8409C51.9063 70.6894 52.8078 68.3333 53.5653 65.7727C54.3381 63.2121 54.9366 60.5606 55.3608 57.8182C55.8002 55.0758 56.0199 52.3636 56.0199 49.6818C56.0199 46.0909 55.6487 42.4773 54.9062 38.8409C54.1638 35.1894 53.1487 31.8106 51.8608 28.7045C50.5729 25.5833 49.1108 23.0227 47.4744 21.0227H58.2472C61.4593 25.0682 63.8229 29.4545 65.3381 34.1818C66.8532 38.8939 67.6108 44.0606 67.6108 49.6818Z" fill="white"/>
</svg>
