<svg width="220" height="283" viewBox="0 0 220 283" fill="none" xmlns="http://www.w3.org/2000/svg">
<path d="M45.5 135C46.7615 149.84 29.5427 170.428 13.6843 184.862C12.5885 185.86 13.4251 187.713 14.8965 187.538C29.3752 185.814 35.8737 185.335 40.7298 187.146C41.4616 187.419 41.7769 188.267 41.4937 188.994C27.8111 224.165 18.9697 237.535 4.80645 253.084C3.77324 254.218 4.91248 256.105 6.41691 255.803C12.1399 254.657 18.3184 254.604 25.5005 257.628C35.434 263.092 42.9007 273.982 48.8807 272.656C48.9603 272.639 49.0408 272.611 49.1156 272.578C67.4976 264.579 66.8192 252.631 86.5005 249.628C100.304 247.522 100.412 253.649 123.024 270.408C123.586 270.824 124.375 270.803 124.907 270.349C136.12 260.765 149.198 251.76 156.5 256.628C168.5 264.628 167.857 263.703 184.5 275.628C198.31 284.2 206.461 273.636 215.187 262.327L215.266 262.225C215.88 261.429 215.551 260.263 214.617 259.891C200.869 254.418 195.302 250.1 181.097 237.216C181.034 237.159 180.973 237.093 180.921 237.026C169.571 222.484 166.621 211.409 165.099 189.584C165.043 188.777 165.643 188.065 166.449 187.99C180.417 186.689 189.849 186.841 202.04 187.491C203.783 187.584 204.438 184.685 202.92 183.824C195.295 179.501 189.25 172.458 181.066 155.761C181.023 155.675 180.988 155.581 180.963 155.488C178.367 145.739 179.02 137.956 177 102.128C174.681 60.9776 172.579 51.9647 164.5 34C158.204 20 140.556 6.65406 112.162 4.12847C95.6625 3.12843 79.4069 7.9205 65.0005 20.1283C53.4445 31.2296 49.5 39.5 44 61C41.5 74 41.9919 93.7292 45.5 135Z" fill="white" stroke="#2F2F2F" stroke-width="8"/>
<circle cx="88" cy="84.6284" r="8" fill="#2F2F2F"/>
<circle cx="134" cy="84.6284" r="8" fill="#2F2F2F"/>
<path d="M98 120C103.75 129.571 115.48 129.093 121 120" stroke="#2F2F2F" stroke-width="8" stroke-linecap="round"/>
</svg>
