<svg width="400" height="400" viewBox="0 0 400 400" fill="none" xmlns="http://www.w3.org/2000/svg">
<circle cx="200" cy="200" r="200" fill="#DEDEDE"/>
<path d="M136.5 194C137.761 208.84 120.543 229.428 104.684 243.862C103.589 244.86 104.425 246.713 105.896 246.538C120.375 244.814 126.874 244.335 131.73 246.146C132.462 246.419 132.777 247.267 132.494 247.994C118.811 283.165 109.97 296.535 95.8064 312.084C94.7732 313.218 95.9125 315.105 97.4169 314.803C103.14 313.657 109.318 313.604 116.5 316.628C126.434 322.092 133.901 332.982 139.881 331.656C139.96 331.639 140.041 331.611 140.116 331.578C158.498 323.579 157.819 311.631 177.5 308.628C191.304 306.522 191.412 312.649 214.024 329.408C214.586 329.824 215.375 329.803 215.907 329.349C227.12 319.765 240.198 310.76 247.5 315.628C259.5 323.628 258.857 322.703 275.5 334.628C289.31 343.2 297.461 332.636 306.187 321.327L306.266 321.225C306.88 320.429 306.551 319.263 305.617 318.891C291.869 313.418 286.302 309.1 272.097 296.216C272.034 296.159 271.973 296.093 271.921 296.026C260.571 281.484 257.621 270.409 256.099 248.584C256.043 247.777 256.643 247.065 257.449 246.99C271.417 245.689 280.849 245.841 293.04 246.491C294.783 246.584 295.438 243.685 293.92 242.824C286.295 238.501 280.25 231.458 272.066 214.761C272.023 214.675 271.988 214.581 271.963 214.488C269.367 204.739 270.02 196.956 268 161.128C265.681 119.978 263.579 110.965 255.5 93C249.204 79 231.556 65.6541 203.162 63.1285C186.662 62.1284 170.407 66.9205 156 79.1283C144.445 90.2296 140.5 98.5 135 120C132.5 133 132.992 152.729 136.5 194Z" fill="white" stroke="#2F2F2F" stroke-width="8"/>
<circle cx="179" cy="143.628" r="8" fill="#2F2F2F"/>
<circle cx="225" cy="143.628" r="8" fill="#2F2F2F"/>
<path d="M189 179C194.75 188.571 206.48 188.093 212 179" stroke="#2F2F2F" stroke-width="8" stroke-linecap="round"/>
</svg>
